<svg width="124" height="72" viewBox="0 0 124 72" fill="none" xmlns="http://www.w3.org/2000/svg">
<g filter="url(#filter0_d_48_2890)">
<rect width="108" height="48" transform="translate(8)" fill="#7D73FC"/>
<path d="M25.572 25.8027C25.572 25.4277 25.4392 25.1387 25.1736 24.9355C24.9119 24.7324 24.4373 24.5273 23.7498 24.3203C23.0623 24.1133 22.5154 23.8828 22.1091 23.6289C21.3318 23.1406 20.9431 22.5039 20.9431 21.7188C20.9431 21.0312 21.2224 20.4648 21.781 20.0195C22.3435 19.5742 23.072 19.3516 23.9666 19.3516C24.5603 19.3516 25.0896 19.4609 25.5545 19.6797C26.0193 19.8984 26.3845 20.2109 26.6502 20.6172C26.9158 21.0195 27.0486 21.4668 27.0486 21.959H25.572C25.572 21.5137 25.4314 21.166 25.1502 20.916C24.8728 20.6621 24.4744 20.5352 23.9548 20.5352C23.4705 20.5352 23.0935 20.6387 22.824 20.8457C22.5584 21.0527 22.4255 21.3418 22.4255 21.7129C22.4255 22.0254 22.5701 22.2871 22.8591 22.498C23.1482 22.7051 23.6248 22.9082 24.2888 23.1074C24.9529 23.3027 25.4861 23.5273 25.8884 23.7812C26.2908 24.0312 26.5857 24.3203 26.7732 24.6484C26.9607 24.9727 27.0545 25.3535 27.0545 25.791C27.0545 26.502 26.781 27.0684 26.2341 27.4902C25.6912 27.9082 24.9529 28.1172 24.0193 28.1172C23.4021 28.1172 22.8337 28.0039 22.3142 27.7773C21.7986 27.5469 21.3962 27.2305 21.1072 26.8281C20.822 26.4258 20.6795 25.957 20.6795 25.4219H22.1619C22.1619 25.9062 22.322 26.2812 22.6423 26.5469C22.9627 26.8125 23.4216 26.9453 24.0193 26.9453C24.5349 26.9453 24.9216 26.8418 25.1795 26.6348C25.4412 26.4238 25.572 26.1465 25.572 25.8027ZM31.3695 28.1172C30.4672 28.1172 29.7348 27.834 29.1723 27.2676C28.6137 26.6973 28.3344 25.9395 28.3344 24.9941V24.8184C28.3344 24.1855 28.4555 23.6211 28.6977 23.125C28.9437 22.625 29.2875 22.2363 29.7289 21.959C30.1703 21.6816 30.6625 21.543 31.2055 21.543C32.0687 21.543 32.7348 21.8184 33.2035 22.3691C33.6762 22.9199 33.9125 23.6992 33.9125 24.707V25.2812H29.7699C29.8129 25.8047 29.9867 26.2188 30.2914 26.5234C30.6 26.8281 30.9867 26.9805 31.4516 26.9805C32.1039 26.9805 32.6352 26.7168 33.0453 26.1895L33.8129 26.9219C33.559 27.3008 33.2191 27.5957 32.7934 27.8066C32.3715 28.0137 31.8969 28.1172 31.3695 28.1172ZM31.1996 22.6855C30.809 22.6855 30.4926 22.8223 30.2504 23.0957C30.0121 23.3691 29.8598 23.75 29.7934 24.2383H32.5062V24.1328C32.475 23.6562 32.348 23.2969 32.1254 23.0547C31.9027 22.8086 31.5941 22.6855 31.1996 22.6855ZM38.1748 28.1172C37.2725 28.1172 36.5401 27.834 35.9776 27.2676C35.419 26.6973 35.1397 25.9395 35.1397 24.9941V24.8184C35.1397 24.1855 35.2608 23.6211 35.503 23.125C35.7491 22.625 36.0928 22.2363 36.5342 21.959C36.9756 21.6816 37.4678 21.543 38.0108 21.543C38.8741 21.543 39.5401 21.8184 40.0088 22.3691C40.4815 22.9199 40.7178 23.6992 40.7178 24.707V25.2812H36.5752C36.6182 25.8047 36.792 26.2188 37.0967 26.5234C37.4053 26.8281 37.792 26.9805 38.2569 26.9805C38.9092 26.9805 39.4405 26.7168 39.8506 26.1895L40.6182 26.9219C40.3643 27.3008 40.0245 27.5957 39.5987 27.8066C39.1768 28.0137 38.7022 28.1172 38.1748 28.1172ZM38.0049 22.6855C37.6143 22.6855 37.2979 22.8223 37.0557 23.0957C36.8174 23.3691 36.6651 23.75 36.5987 24.2383H39.3116V24.1328C39.2803 23.6562 39.1534 23.2969 38.9307 23.0547C38.708 22.8086 38.3995 22.6855 38.0049 22.6855ZM47.1566 26.8164H51.0296V28H45.6741V19.4688H47.1566V26.8164ZM53.9033 28H52.4795V21.6602H53.9033V28ZM52.3916 20.0137C52.3916 19.7949 52.4599 19.6133 52.5966 19.4688C52.7373 19.3242 52.9365 19.252 53.1943 19.252C53.4521 19.252 53.6513 19.3242 53.792 19.4688C53.9326 19.6133 54.0029 19.7949 54.0029 20.0137C54.0029 20.2285 53.9326 20.4082 53.792 20.5527C53.6513 20.6934 53.4521 20.7637 53.1943 20.7637C52.9365 20.7637 52.7373 20.6934 52.5966 20.5527C52.4599 20.4082 52.3916 20.2285 52.3916 20.0137ZM58.0543 26.1953L59.3961 21.6602H60.8668L58.6695 28H57.4332L55.2184 21.6602H56.6949L58.0543 26.1953ZM64.8303 28.1172C63.928 28.1172 63.1955 27.834 62.633 27.2676C62.0745 26.6973 61.7952 25.9395 61.7952 24.9941V24.8184C61.7952 24.1855 61.9163 23.6211 62.1584 23.125C62.4045 22.625 62.7483 22.2363 63.1897 21.959C63.6311 21.6816 64.1233 21.543 64.6663 21.543C65.5295 21.543 66.1955 21.8184 66.6643 22.3691C67.137 22.9199 67.3733 23.6992 67.3733 24.707V25.2812H63.2307C63.2737 25.8047 63.4475 26.2188 63.7522 26.5234C64.0608 26.8281 64.4475 26.9805 64.9123 26.9805C65.5647 26.9805 66.0959 26.7168 66.5061 26.1895L67.2737 26.9219C67.0198 27.3008 66.6799 27.5957 66.2541 27.8066C65.8323 28.0137 65.3577 28.1172 64.8303 28.1172ZM64.6604 22.6855C64.2698 22.6855 63.9534 22.8223 63.7112 23.0957C63.4729 23.3691 63.3205 23.75 63.2541 24.2383H65.967V24.1328C65.9358 23.6562 65.8088 23.2969 65.5862 23.0547C65.3635 22.8086 65.0549 22.6855 64.6604 22.6855Z" fill="white"/>
<path fill-rule="evenodd" clip-rule="evenodd" d="M85 24C85 20.134 88.134 17 92 17C92.5523 17 93 16.5523 93 16C93 15.4477 92.5523 15 92 15C87.0294 15 83 19.0294 83 24C83 28.9706 87.0294 33 92 33C96.9706 33 101 28.9706 101 24C101 23.4477 100.552 23 100 23C99.4477 23 99 23.4477 99 24C99 27.866 95.866 31 92 31C88.134 31 85 27.866 85 24ZM96 15C95.4477 15 95 15.4477 95 16C95 16.5523 95.4477 17 96 17H97.5858L91.2929 23.2929C90.9024 23.6834 90.9024 24.3166 91.2929 24.7071C91.6834 25.0976 92.3166 25.0976 92.7071 24.7071L99 18.4142V20C99 20.5523 99.4477 21 100 21C100.552 21 101 20.5523 101 20V16C101 15.4477 100.552 15 100 15H96Z" fill="white"/>
</g>
<defs>
<filter id="filter0_d_48_2890" x="-8" y="-8" width="140" height="80" filterUnits="userSpaceOnUse" color-interpolation-filters="sRGB">
<feFlood flood-opacity="0" result="BackgroundImageFix"/>
<feColorMatrix in="SourceAlpha" type="matrix" values="0 0 0 0 0 0 0 0 0 0 0 0 0 0 0 0 0 0 127 0" result="hardAlpha"/>
<feOffset dy="8"/>
<feGaussianBlur stdDeviation="8"/>
<feColorMatrix type="matrix" values="0 0 0 0 0.490196 0 0 0 0 0.45098 0 0 0 0 0.988235 0 0 0 0.48 0"/>
<feBlend mode="normal" in2="BackgroundImageFix" result="effect1_dropShadow_48_2890"/>
<feBlend mode="normal" in="SourceGraphic" in2="effect1_dropShadow_48_2890" result="shape"/>
</filter>
</defs>
</svg>
