<svg width="304" height="41" viewBox="0 0 304 41" fill="none" xmlns="http://www.w3.org/2000/svg">
<rect y="0.5" width="1" height="40" fill="#81818C"/>
<path d="M17.666 18.4395C18.2471 17.7656 18.9819 17.4287 19.8706 17.4287C21.5601 17.4287 22.417 18.3931 22.4414 20.3218V25.5H20.6616V20.3877C20.6616 19.8408 20.542 19.4551 20.3027 19.2305C20.0684 19.001 19.7217 18.8862 19.2627 18.8862C18.5498 18.8862 18.0176 19.2036 17.666 19.8384V25.5H15.8862V14.25H17.666V18.4395ZM26.4771 15.6489V17.5752H27.876V18.8936H26.4771V23.3174C26.4771 23.6201 26.5356 23.8398 26.6528 23.9766C26.7749 24.1084 26.9897 24.1743 27.2974 24.1743C27.5024 24.1743 27.71 24.1499 27.9199 24.1011V25.478C27.5146 25.5903 27.124 25.6465 26.748 25.6465C25.3809 25.6465 24.6973 24.8921 24.6973 23.3833V18.8936H23.3936V17.5752H24.6973V15.6489H26.4771ZM30.9155 17.5752L30.9668 18.4028C31.5234 17.7534 32.2852 17.4287 33.252 17.4287C34.3115 17.4287 35.0366 17.834 35.4272 18.6445C36.0034 17.834 36.814 17.4287 37.8589 17.4287C38.7329 17.4287 39.3823 17.6704 39.8071 18.1538C40.2368 18.6372 40.4565 19.3501 40.4663 20.2925V25.5H38.6865V20.3438C38.6865 19.8408 38.5767 19.4722 38.3569 19.2378C38.1372 19.0034 37.7734 18.8862 37.2656 18.8862C36.8604 18.8862 36.5283 18.9961 36.2695 19.2158C36.0156 19.4307 35.8374 19.7139 35.7349 20.0654L35.7422 25.5H33.9624V20.2852C33.938 19.3525 33.4619 18.8862 32.5342 18.8862C31.8213 18.8862 31.3159 19.1768 31.0181 19.7578V25.5H29.2383V17.5752H30.9155ZM44.187 25.5H42.4072V14.25H44.187V25.5Z" fill="white"/>
<rect x="60" y="0.5" width="1" height="40" fill="#81818C"/>
<path d="M80.0024 21.3911H77.937V25.5H76.084V14.8359H79.834C81.0645 14.8359 82.0142 15.1118 82.6831 15.6636C83.3521 16.2153 83.6865 17.0137 83.6865 18.0586C83.6865 18.7715 83.5132 19.3696 83.1665 19.853C82.8247 20.3315 82.3462 20.7002 81.731 20.959L84.126 25.4048V25.5H82.1411L80.0024 21.3911ZM77.937 19.9043H79.8413C80.4663 19.9043 80.9546 19.748 81.3062 19.4355C81.6577 19.1182 81.8335 18.686 81.8335 18.1392C81.8335 17.5679 81.6699 17.126 81.3428 16.8135C81.0205 16.501 80.5371 16.3398 79.8926 16.3301H77.937V19.9043ZM90.0732 24.7236C89.5508 25.3389 88.8086 25.6465 87.8467 25.6465C86.9873 25.6465 86.3354 25.395 85.8911 24.8921C85.4517 24.3892 85.2319 23.6616 85.2319 22.7095V17.5752H87.0117V22.6875C87.0117 23.6934 87.4292 24.1963 88.2642 24.1963C89.1284 24.1963 89.7119 23.8862 90.0146 23.2661V17.5752H91.7944V25.5H90.1172L90.0732 24.7236ZM100.562 21.6182C100.562 22.8486 100.286 23.8276 99.7339 24.5552C99.187 25.2827 98.4326 25.6465 97.4707 25.6465C96.543 25.6465 95.8203 25.312 95.3027 24.6431L95.2148 25.5H93.6035V14.25H95.3833V18.3369C95.896 17.7314 96.5869 17.4287 97.4561 17.4287C98.4229 17.4287 99.1821 17.7876 99.7339 18.5054C100.286 19.2231 100.562 20.2266 100.562 21.5156V21.6182ZM98.7817 21.4644C98.7817 20.605 98.6304 19.9604 98.3276 19.5308C98.0249 19.1011 97.5854 18.8862 97.0093 18.8862C96.2378 18.8862 95.6958 19.2231 95.3833 19.897V23.1636C95.7007 23.8521 96.2476 24.1963 97.0239 24.1963C97.5806 24.1963 98.0103 23.9888 98.313 23.5737C98.6157 23.1587 98.772 22.5312 98.7817 21.6914V21.4644ZM104.744 22.9512L106.355 17.5752H108.252L105.103 26.7012C104.619 28.0342 103.799 28.7007 102.642 28.7007C102.383 28.7007 102.097 28.6567 101.785 28.5688V27.1919L102.122 27.2139C102.571 27.2139 102.908 27.1309 103.132 26.9648C103.362 26.8037 103.542 26.5303 103.674 26.1445L103.931 25.4634L101.147 17.5752H103.066L104.744 22.9512ZM112.683 21.4644C112.683 20.688 112.837 19.9897 113.145 19.3696C113.452 18.7446 113.884 18.2661 114.441 17.9341C114.998 17.5972 115.637 17.4287 116.36 17.4287C117.429 17.4287 118.296 17.7729 118.96 18.4614C119.629 19.1499 119.99 20.063 120.044 21.2007L120.051 21.6182C120.051 22.3994 119.9 23.0977 119.597 23.7129C119.299 24.3281 118.87 24.8042 118.308 25.1411C117.751 25.478 117.107 25.6465 116.375 25.6465C115.256 25.6465 114.36 25.2754 113.687 24.5332C113.018 23.7861 112.683 22.7925 112.683 21.5522V21.4644ZM114.463 21.6182C114.463 22.4336 114.631 23.0732 114.968 23.5371C115.305 23.9961 115.774 24.2256 116.375 24.2256C116.975 24.2256 117.441 23.9912 117.773 23.5225C118.11 23.0537 118.279 22.3677 118.279 21.4644C118.279 20.6636 118.105 20.0288 117.759 19.5601C117.417 19.0913 116.951 18.8569 116.36 18.8569C115.779 18.8569 115.317 19.0889 114.976 19.5527C114.634 20.0117 114.463 20.7002 114.463 21.6182ZM123.208 17.5752L123.259 18.4907C123.845 17.7827 124.614 17.4287 125.566 17.4287C127.217 17.4287 128.057 18.3735 128.086 20.2632V25.5H126.306V20.3657C126.306 19.8628 126.196 19.4917 125.977 19.2524C125.762 19.0083 125.408 18.8862 124.915 18.8862C124.197 18.8862 123.662 19.2109 123.311 19.8604V25.5H121.531V17.5752H123.208ZM137.791 19.2012C137.556 19.1621 137.314 19.1426 137.065 19.1426C136.25 19.1426 135.701 19.4551 135.417 20.0801V25.5H133.638V17.5752H135.337L135.381 18.4614C135.811 17.7729 136.406 17.4287 137.168 17.4287C137.422 17.4287 137.632 17.4629 137.798 17.5312L137.791 19.2012ZM143.43 25.5C143.352 25.3486 143.284 25.1021 143.225 24.7603C142.659 25.3511 141.965 25.6465 141.145 25.6465C140.349 25.6465 139.7 25.4194 139.197 24.9653C138.694 24.5112 138.442 23.9497 138.442 23.2808C138.442 22.436 138.755 21.7891 139.38 21.3398C140.01 20.8857 140.908 20.6587 142.075 20.6587H143.167V20.1387C143.167 19.7285 143.052 19.4014 142.822 19.1572C142.593 18.9082 142.244 18.7837 141.775 18.7837C141.37 18.7837 141.038 18.8862 140.779 19.0913C140.52 19.2915 140.391 19.5479 140.391 19.8604H138.611C138.611 19.4258 138.755 19.0205 139.043 18.6445C139.331 18.2637 139.722 17.9658 140.215 17.751C140.713 17.5361 141.267 17.4287 141.877 17.4287C142.805 17.4287 143.545 17.6631 144.097 18.1318C144.648 18.5957 144.932 19.25 144.946 20.0947V23.6689C144.946 24.3818 145.046 24.9507 145.247 25.3755V25.5H143.43ZM141.475 24.2183C141.826 24.2183 142.156 24.1328 142.463 23.9619C142.776 23.791 143.01 23.5615 143.167 23.2734V21.7793H142.207C141.548 21.7793 141.052 21.894 140.72 22.1235C140.388 22.353 140.222 22.6777 140.222 23.0977C140.222 23.4395 140.334 23.7129 140.559 23.918C140.789 24.1182 141.094 24.2183 141.475 24.2183ZM148.704 25.5H146.924V17.5752H148.704V25.5ZM146.814 15.5171C146.814 15.2437 146.899 15.0166 147.07 14.8359C147.246 14.6553 147.495 14.5649 147.817 14.5649C148.14 14.5649 148.389 14.6553 148.564 14.8359C148.74 15.0166 148.828 15.2437 148.828 15.5171C148.828 15.7856 148.74 16.0103 148.564 16.1909C148.389 16.3667 148.14 16.4546 147.817 16.4546C147.495 16.4546 147.246 16.3667 147.07 16.1909C146.899 16.0103 146.814 15.7856 146.814 15.5171ZM152.542 25.5H150.762V14.25H152.542V25.5ZM158.928 23.3467C158.928 23.0293 158.796 22.7876 158.533 22.6216C158.274 22.4556 157.842 22.3091 157.236 22.1821C156.631 22.0552 156.125 21.894 155.72 21.6987C154.832 21.269 154.387 20.6465 154.387 19.8311C154.387 19.1475 154.675 18.5762 155.251 18.1172C155.828 17.6582 156.56 17.4287 157.449 17.4287C158.396 17.4287 159.16 17.6631 159.741 18.1318C160.327 18.6006 160.62 19.2085 160.62 19.9556H158.84C158.84 19.6138 158.713 19.3306 158.459 19.106C158.206 18.8765 157.869 18.7617 157.449 18.7617C157.058 18.7617 156.738 18.8521 156.489 19.0327C156.245 19.2134 156.123 19.4551 156.123 19.7578C156.123 20.0312 156.238 20.2437 156.467 20.395C156.697 20.5464 157.161 20.7002 157.859 20.8564C158.557 21.0078 159.104 21.1909 159.5 21.4058C159.9 21.6157 160.195 21.8696 160.386 22.1675C160.581 22.4653 160.679 22.8267 160.679 23.2515C160.679 23.9644 160.383 24.543 159.792 24.9873C159.202 25.4268 158.428 25.6465 157.471 25.6465C156.821 25.6465 156.243 25.5293 155.735 25.2949C155.227 25.0605 154.832 24.7383 154.548 24.3281C154.265 23.918 154.124 23.4761 154.124 23.0024H155.852C155.876 23.4224 156.035 23.7471 156.328 23.9766C156.621 24.2012 157.009 24.3135 157.493 24.3135C157.961 24.3135 158.318 24.2256 158.562 24.0498C158.806 23.8691 158.928 23.6348 158.928 23.3467Z" fill="white"/>
<rect x="176" y="0.5" width="1" height="40" fill="#81818C"/>
<path d="M195.167 24.2256C195.612 24.2256 195.98 24.0962 196.273 23.8374C196.566 23.5786 196.723 23.2588 196.742 22.8779H198.419C198.4 23.3711 198.246 23.8325 197.958 24.2622C197.67 24.687 197.279 25.0239 196.786 25.2729C196.293 25.522 195.761 25.6465 195.189 25.6465C194.081 25.6465 193.202 25.2876 192.553 24.5698C191.903 23.8521 191.579 22.8608 191.579 21.5962V21.4131C191.579 20.207 191.901 19.2427 192.545 18.52C193.19 17.7925 194.069 17.4287 195.182 17.4287C196.125 17.4287 196.891 17.7046 197.482 18.2563C198.078 18.8032 198.39 19.5234 198.419 20.417H196.742C196.723 19.9629 196.566 19.5894 196.273 19.2964C195.985 19.0034 195.617 18.8569 195.167 18.8569C194.591 18.8569 194.147 19.0669 193.834 19.4868C193.522 19.9019 193.363 20.5342 193.358 21.3838V21.6694C193.358 22.5288 193.512 23.1709 193.82 23.5957C194.132 24.0156 194.582 24.2256 195.167 24.2256ZM204.206 23.3467C204.206 23.0293 204.074 22.7876 203.81 22.6216C203.551 22.4556 203.119 22.3091 202.514 22.1821C201.908 22.0552 201.403 21.894 200.998 21.6987C200.109 21.269 199.665 20.6465 199.665 19.8311C199.665 19.1475 199.953 18.5762 200.529 18.1172C201.105 17.6582 201.837 17.4287 202.726 17.4287C203.673 17.4287 204.438 17.6631 205.019 18.1318C205.604 18.6006 205.897 19.2085 205.897 19.9556H204.118C204.118 19.6138 203.991 19.3306 203.737 19.106C203.483 18.8765 203.146 18.7617 202.726 18.7617C202.335 18.7617 202.016 18.8521 201.767 19.0327C201.522 19.2134 201.4 19.4551 201.4 19.7578C201.4 20.0312 201.515 20.2437 201.745 20.395C201.974 20.5464 202.438 20.7002 203.136 20.8564C203.834 21.0078 204.381 21.1909 204.777 21.4058C205.177 21.6157 205.473 21.8696 205.663 22.1675C205.858 22.4653 205.956 22.8267 205.956 23.2515C205.956 23.9644 205.661 24.543 205.07 24.9873C204.479 25.4268 203.705 25.6465 202.748 25.6465C202.099 25.6465 201.52 25.5293 201.012 25.2949C200.504 25.0605 200.109 24.7383 199.826 24.3281C199.542 23.918 199.401 23.4761 199.401 23.0024H201.129C201.154 23.4224 201.312 23.7471 201.605 23.9766C201.898 24.2012 202.287 24.3135 202.77 24.3135C203.239 24.3135 203.595 24.2256 203.839 24.0498C204.083 23.8691 204.206 23.6348 204.206 23.3467ZM211.955 23.3467C211.955 23.0293 211.823 22.7876 211.559 22.6216C211.3 22.4556 210.868 22.3091 210.263 22.1821C209.657 22.0552 209.152 21.894 208.747 21.6987C207.858 21.269 207.414 20.6465 207.414 19.8311C207.414 19.1475 207.702 18.5762 208.278 18.1172C208.854 17.6582 209.586 17.4287 210.475 17.4287C211.422 17.4287 212.187 17.6631 212.768 18.1318C213.354 18.6006 213.646 19.2085 213.646 19.9556H211.867C211.867 19.6138 211.74 19.3306 211.486 19.106C211.232 18.8765 210.895 18.7617 210.475 18.7617C210.084 18.7617 209.765 18.8521 209.516 19.0327C209.271 19.2134 209.149 19.4551 209.149 19.7578C209.149 20.0312 209.264 20.2437 209.494 20.395C209.723 20.5464 210.187 20.7002 210.885 20.8564C211.583 21.0078 212.13 21.1909 212.526 21.4058C212.926 21.6157 213.222 21.8696 213.412 22.1675C213.607 22.4653 213.705 22.8267 213.705 23.2515C213.705 23.9644 213.41 24.543 212.819 24.9873C212.228 25.4268 211.454 25.6465 210.497 25.6465C209.848 25.6465 209.269 25.5293 208.761 25.2949C208.253 25.0605 207.858 24.7383 207.575 24.3281C207.292 23.918 207.15 23.4761 207.15 23.0024H208.878C208.903 23.4224 209.062 23.7471 209.354 23.9766C209.647 24.2012 210.036 24.3135 210.519 24.3135C210.988 24.3135 211.344 24.2256 211.588 24.0498C211.833 23.8691 211.955 23.6348 211.955 23.3467Z" fill="white"/>
<rect x="229" y="0.5" width="1" height="40" fill="#81818C"/>
<path d="M253.258 24.1157C252.872 24.6187 252.337 24.9995 251.654 25.2583C250.97 25.5171 250.194 25.6465 249.325 25.6465C248.431 25.6465 247.64 25.4438 246.952 25.0386C246.263 24.6333 245.731 24.0547 245.355 23.3027C244.984 22.5459 244.791 21.6646 244.776 20.6587V19.8237C244.776 18.2124 245.162 16.9551 245.934 16.0518C246.705 15.1436 247.782 14.6895 249.164 14.6895C250.35 14.6895 251.292 14.9824 251.991 15.5684C252.689 16.1543 253.109 16.999 253.25 18.1025H251.434C251.229 16.8184 250.484 16.1763 249.2 16.1763C248.37 16.1763 247.738 16.4766 247.303 17.0771C246.874 17.6729 246.651 18.5493 246.637 19.7065V20.5269C246.637 21.6792 246.878 22.5752 247.362 23.2148C247.85 23.8496 248.526 24.167 249.391 24.167C250.338 24.167 251.012 23.9521 251.412 23.5225V21.4351H249.215V20.0288H253.258V24.1157ZM257.015 25.5H255.235V17.5752H257.015V25.5ZM255.125 15.5171C255.125 15.2437 255.211 15.0166 255.382 14.8359C255.558 14.6553 255.807 14.5649 256.129 14.5649C256.451 14.5649 256.7 14.6553 256.876 14.8359C257.052 15.0166 257.14 15.2437 257.14 15.5171C257.14 15.7856 257.052 16.0103 256.876 16.1909C256.7 16.3667 256.451 16.4546 256.129 16.4546C255.807 16.4546 255.558 16.3667 255.382 16.1909C255.211 16.0103 255.125 15.7856 255.125 15.5171ZM261.19 15.6489V17.5752H262.589V18.8936H261.19V23.3174C261.19 23.6201 261.249 23.8398 261.366 23.9766C261.488 24.1084 261.703 24.1743 262.01 24.1743C262.215 24.1743 262.423 24.1499 262.633 24.1011V25.478C262.228 25.5903 261.837 25.6465 261.461 25.6465C260.094 25.6465 259.41 24.8921 259.41 23.3833V18.8936H258.106V17.5752H259.41V15.6489H261.19ZM265.709 18.4395C266.29 17.7656 267.025 17.4287 267.914 17.4287C269.603 17.4287 270.46 18.3931 270.484 20.3218V25.5H268.705V20.3877C268.705 19.8408 268.585 19.4551 268.346 19.2305C268.111 19.001 267.765 18.8862 267.306 18.8862C266.593 18.8862 266.061 19.2036 265.709 19.8384V25.5H263.929V14.25H265.709V18.4395ZM277.091 24.7236C276.568 25.3389 275.826 25.6465 274.864 25.6465C274.005 25.6465 273.353 25.395 272.909 24.8921C272.469 24.3892 272.25 23.6616 272.25 22.7095V17.5752H274.029V22.6875C274.029 23.6934 274.447 24.1963 275.282 24.1963C276.146 24.1963 276.729 23.8862 277.032 23.2661V17.5752H278.812V25.5H277.135L277.091 24.7236ZM287.579 21.6182C287.579 22.8486 287.303 23.8276 286.751 24.5552C286.205 25.2827 285.45 25.6465 284.488 25.6465C283.561 25.6465 282.838 25.312 282.32 24.6431L282.232 25.5H280.621V14.25H282.401V18.3369C282.914 17.7314 283.604 17.4287 284.474 17.4287C285.44 17.4287 286.2 17.7876 286.751 18.5054C287.303 19.2231 287.579 20.2266 287.579 21.5156V21.6182ZM285.799 21.4644C285.799 20.605 285.648 19.9604 285.345 19.5308C285.042 19.1011 284.603 18.8862 284.027 18.8862C283.255 18.8862 282.713 19.2231 282.401 19.897V23.1636C282.718 23.8521 283.265 24.1963 284.042 24.1963C284.598 24.1963 285.028 23.9888 285.331 23.5737C285.633 23.1587 285.79 22.5312 285.799 21.6914V21.4644Z" fill="white"/>
<rect x="303" y="0.5" width="1" height="40" fill="#81818C"/>
</svg>
