<svg width="246" height="41" viewBox="0 0 246 41" fill="none" xmlns="http://www.w3.org/2000/svg">
<g clip-path="url(#clip0_48_2914)">
<rect x="0.5" y="0.5" width="1" height="40" fill="#81818C"/>
<path d="M21.155 17.1C22.115 17.1 22.885 17.41 23.465 18.03C24.045 18.65 24.335 19.535 24.335 20.685V25.5H22.625V20.865C22.625 20.125 22.435 19.555 22.055 19.155C21.675 18.745 21.155 18.54 20.495 18.54C19.815 18.54 19.27 18.76 18.86 19.2C18.45 19.63 18.245 20.265 18.245 21.105V25.5H16.535V14.4H18.245V19.05C18.465 18.43 18.835 17.95 19.355 17.61C19.875 17.27 20.475 17.1 21.155 17.1ZM30.4898 24.015V25.5H29.4398C28.5598 25.5 27.8898 25.29 27.4298 24.87C26.9798 24.44 26.7548 23.73 26.7548 22.74V18.69H25.5698V17.235H26.7548V15.18H28.4798V17.235H30.4748V18.69H28.4798V22.77C28.4798 23.24 28.5648 23.565 28.7348 23.745C28.9148 23.925 29.2248 24.015 29.6648 24.015H30.4898ZM42.4266 17.1C43.4066 17.1 44.1866 17.41 44.7666 18.03C45.3566 18.65 45.6516 19.535 45.6516 20.685V25.5H43.9416V20.865C43.9416 20.145 43.7616 19.59 43.4016 19.2C43.0416 18.8 42.5466 18.6 41.9166 18.6C41.2466 18.6 40.7116 18.815 40.3116 19.245C39.9216 19.665 39.7266 20.285 39.7266 21.105V25.5H38.0166V20.865C38.0166 20.145 37.8366 19.59 37.4766 19.2C37.1166 18.8 36.6216 18.6 35.9916 18.6C35.3216 18.6 34.7866 18.815 34.3866 19.245C33.9966 19.665 33.8016 20.285 33.8016 21.105V25.5H32.0916V17.235H33.8016V18.96C34.0116 18.36 34.3616 17.9 34.8516 17.58C35.3416 17.26 35.9166 17.1 36.5766 17.1C37.2666 17.1 37.8616 17.27 38.3616 17.61C38.8716 17.95 39.2416 18.44 39.4716 19.08C39.7116 18.46 40.0966 17.975 40.6266 17.625C41.1566 17.275 41.7566 17.1 42.4266 17.1ZM49.3583 14.4V25.5H47.6483V14.4H49.3583Z" fill="white"/>
<rect x="64.5" y="0.5" width="1" height="40" fill="#81818C"/>
<path d="M86.1 25.5L83.46 21.27H82.245V25.5H80.535V14.91H84.27C85.48 14.91 86.395 15.205 87.015 15.795C87.645 16.385 87.96 17.165 87.96 18.135C87.96 18.965 87.725 19.645 87.255 20.175C86.795 20.705 86.125 21.045 85.245 21.195L88.02 25.5H86.1ZM82.245 20.055H84.135C85.515 20.055 86.205 19.445 86.205 18.225C86.205 17.645 86.035 17.195 85.695 16.875C85.365 16.545 84.845 16.38 84.135 16.38H82.245V20.055ZM97.1198 17.235V25.5H95.3948V23.7C95.1848 24.31 94.8198 24.785 94.2998 25.125C93.7798 25.455 93.1748 25.62 92.4848 25.62C91.5248 25.62 90.7548 25.31 90.1748 24.69C89.5948 24.07 89.3048 23.185 89.3048 22.035V17.235H91.0148V21.855C91.0148 22.605 91.2048 23.185 91.5848 23.595C91.9648 23.995 92.4848 24.195 93.1448 24.195C93.8248 24.195 94.3698 23.975 94.7798 23.535C95.1898 23.095 95.3948 22.455 95.3948 21.615V17.235H97.1198ZM103.908 17.13C104.628 17.13 105.268 17.3 105.828 17.64C106.398 17.98 106.843 18.47 107.163 19.11C107.483 19.75 107.643 20.5 107.643 21.36C107.643 22.23 107.483 22.985 107.163 23.625C106.843 24.265 106.398 24.755 105.828 25.095C105.268 25.435 104.628 25.605 103.908 25.605C103.158 25.605 102.518 25.42 101.988 25.05C101.458 24.68 101.088 24.19 100.878 23.58V25.5H99.1678V14.4H100.878V19.155C101.088 18.545 101.458 18.055 101.988 17.685C102.518 17.315 103.158 17.13 103.908 17.13ZM103.383 18.63C102.903 18.63 102.473 18.745 102.093 18.975C101.713 19.195 101.413 19.515 101.193 19.935C100.973 20.345 100.863 20.82 100.863 21.36C100.863 21.91 100.973 22.39 101.193 22.8C101.413 23.21 101.713 23.53 102.093 23.76C102.473 23.98 102.903 24.09 103.383 24.09C104.143 24.09 104.753 23.85 105.213 23.37C105.673 22.88 105.903 22.21 105.903 21.36C105.903 20.52 105.673 19.855 105.213 19.365C104.753 18.875 104.143 18.63 103.383 18.63ZM110.265 17.235L112.74 23.31L115.035 17.235H116.94L111.945 29.43H110.04L111.825 25.305L108.345 17.235H110.265ZM125.36 17.13C126.16 17.13 126.88 17.3 127.52 17.64C128.16 17.98 128.66 18.47 129.02 19.11C129.38 19.75 129.56 20.5 129.56 21.36C129.56 22.23 129.38 22.985 129.02 23.625C128.66 24.265 128.16 24.755 127.52 25.095C126.88 25.435 126.16 25.605 125.36 25.605C124.56 25.605 123.84 25.435 123.2 25.095C122.57 24.755 122.07 24.265 121.7 23.625C121.34 22.975 121.16 22.22 121.16 21.36C121.16 20.5 121.34 19.75 121.7 19.11C122.07 18.47 122.57 17.98 123.2 17.64C123.84 17.3 124.56 17.13 125.36 17.13ZM125.36 18.615C124.92 18.615 124.515 18.715 124.145 18.915C123.775 19.115 123.475 19.425 123.245 19.845C123.025 20.255 122.915 20.76 122.915 21.36C122.915 21.97 123.025 22.48 123.245 22.89C123.475 23.3 123.775 23.605 124.145 23.805C124.515 24.005 124.92 24.105 125.36 24.105C125.8 24.105 126.205 24.005 126.575 23.805C126.945 23.605 127.24 23.3 127.46 22.89C127.69 22.48 127.805 21.97 127.805 21.36C127.805 20.76 127.69 20.255 127.46 19.845C127.24 19.425 126.945 19.115 126.575 18.915C126.205 18.715 125.8 18.615 125.36 18.615ZM135.824 17.1C136.784 17.1 137.554 17.41 138.134 18.03C138.714 18.65 139.004 19.535 139.004 20.685V25.5H137.294V20.865C137.294 20.125 137.104 19.555 136.724 19.155C136.344 18.745 135.824 18.54 135.164 18.54C134.484 18.54 133.939 18.76 133.529 19.2C133.119 19.63 132.914 20.265 132.914 21.105V25.5H131.204V17.235H132.914V19.05C133.134 18.43 133.504 17.95 134.024 17.61C134.544 17.27 135.144 17.1 135.824 17.1ZM146.229 18.855C146.509 18.315 146.909 17.89 147.429 17.58C147.949 17.26 148.549 17.1 149.229 17.1V18.96H148.719C147.969 18.96 147.364 19.145 146.904 19.515C146.454 19.875 146.229 20.475 146.229 21.315V25.5H144.519V17.235H146.229V18.855ZM153.826 17.13C154.576 17.13 155.216 17.315 155.746 17.685C156.276 18.055 156.651 18.545 156.871 19.155V17.235H158.581V25.5H156.871V23.58C156.651 24.19 156.276 24.68 155.746 25.05C155.216 25.42 154.576 25.605 153.826 25.605C153.106 25.605 152.461 25.435 151.891 25.095C151.331 24.755 150.891 24.265 150.571 23.625C150.251 22.985 150.091 22.23 150.091 21.36C150.091 20.5 150.251 19.75 150.571 19.11C150.891 18.47 151.331 17.98 151.891 17.64C152.461 17.3 153.106 17.13 153.826 17.13ZM154.351 18.63C153.591 18.63 152.981 18.875 152.521 19.365C152.071 19.845 151.846 20.51 151.846 21.36C151.846 22.21 152.071 22.88 152.521 23.37C152.981 23.85 153.591 24.09 154.351 24.09C154.831 24.09 155.261 23.98 155.641 23.76C156.021 23.53 156.321 23.21 156.541 22.8C156.761 22.39 156.871 21.91 156.871 21.36C156.871 20.82 156.761 20.345 156.541 19.935C156.321 19.515 156.021 19.195 155.641 18.975C155.261 18.745 154.831 18.63 154.351 18.63ZM160.393 14.835C160.393 14.545 160.493 14.305 160.693 14.115C160.893 13.925 161.158 13.83 161.488 13.83C161.818 13.83 162.083 13.925 162.283 14.115C162.493 14.305 162.598 14.545 162.598 14.835C162.598 15.125 162.493 15.36 162.283 15.54C162.083 15.72 161.818 15.81 161.488 15.81C161.158 15.81 160.893 15.72 160.693 15.54C160.493 15.36 160.393 15.125 160.393 14.835ZM162.343 17.235V25.5H160.633V17.235H162.343ZM166.122 14.4V25.5H164.412V14.4H166.122ZM170.906 17.13C171.876 17.13 172.651 17.38 173.231 17.88C173.821 18.37 174.181 19.03 174.311 19.86H172.691C172.621 19.41 172.426 19.05 172.106 18.78C171.796 18.5 171.381 18.36 170.861 18.36C170.431 18.36 170.096 18.465 169.856 18.675C169.626 18.875 169.511 19.15 169.511 19.5C169.511 19.76 169.596 19.97 169.766 20.13C169.936 20.29 170.146 20.415 170.396 20.505C170.656 20.595 171.021 20.695 171.491 20.805C172.111 20.945 172.611 21.09 172.991 21.24C173.381 21.39 173.711 21.63 173.981 21.96C174.261 22.28 174.401 22.72 174.401 23.28C174.401 23.97 174.136 24.53 173.606 24.96C173.086 25.39 172.381 25.605 171.491 25.605C170.461 25.605 169.626 25.365 168.986 24.885C168.356 24.405 167.976 23.735 167.846 22.875H169.511C169.561 23.325 169.761 23.69 170.111 23.97C170.461 24.25 170.921 24.39 171.491 24.39C171.901 24.39 172.221 24.285 172.451 24.075C172.691 23.855 172.811 23.58 172.811 23.25C172.811 22.96 172.721 22.73 172.541 22.56C172.361 22.39 172.136 22.26 171.866 22.17C171.596 22.07 171.226 21.97 170.756 21.87C170.156 21.73 169.666 21.59 169.286 21.45C168.916 21.31 168.596 21.085 168.326 20.775C168.066 20.455 167.936 20.025 167.936 19.485C167.936 18.785 168.196 18.22 168.716 17.79C169.246 17.35 169.976 17.13 170.906 17.13Z" fill="white"/>
<rect x="189.5" y="0.5" width="1" height="40" fill="#81818C"/>
<path d="M209.21 17.13C210.28 17.13 211.165 17.415 211.865 17.985C212.565 18.545 213 19.31 213.17 20.28H211.355C211.255 19.76 211.01 19.355 210.62 19.065C210.24 18.765 209.76 18.615 209.18 18.615C208.52 18.615 207.97 18.85 207.53 19.32C207.09 19.78 206.87 20.46 206.87 21.36C206.87 22.26 207.09 22.945 207.53 23.415C207.97 23.885 208.52 24.12 209.18 24.12C209.76 24.12 210.24 23.97 210.62 23.67C211.01 23.37 211.255 22.96 211.355 22.44H213.17C213 23.41 212.565 24.18 211.865 24.75C211.165 25.32 210.28 25.605 209.21 25.605C208.41 25.605 207.7 25.435 207.08 25.095C206.47 24.755 205.99 24.265 205.64 23.625C205.29 22.985 205.115 22.23 205.115 21.36C205.115 20.5 205.29 19.75 205.64 19.11C205.99 18.47 206.47 17.98 207.08 17.64C207.7 17.3 208.41 17.13 209.21 17.13ZM217.537 17.13C218.507 17.13 219.282 17.38 219.862 17.88C220.452 18.37 220.812 19.03 220.942 19.86H219.322C219.252 19.41 219.057 19.05 218.737 18.78C218.427 18.5 218.012 18.36 217.492 18.36C217.062 18.36 216.727 18.465 216.487 18.675C216.257 18.875 216.142 19.15 216.142 19.5C216.142 19.76 216.227 19.97 216.397 20.13C216.567 20.29 216.777 20.415 217.027 20.505C217.287 20.595 217.652 20.695 218.122 20.805C218.742 20.945 219.242 21.09 219.622 21.24C220.012 21.39 220.342 21.63 220.612 21.96C220.892 22.28 221.032 22.72 221.032 23.28C221.032 23.97 220.767 24.53 220.237 24.96C219.717 25.39 219.012 25.605 218.122 25.605C217.092 25.605 216.257 25.365 215.617 24.885C214.987 24.405 214.607 23.735 214.477 22.875H216.142C216.192 23.325 216.392 23.69 216.742 23.97C217.092 24.25 217.552 24.39 218.122 24.39C218.532 24.39 218.852 24.285 219.082 24.075C219.322 23.855 219.442 23.58 219.442 23.25C219.442 22.96 219.352 22.73 219.172 22.56C218.992 22.39 218.767 22.26 218.497 22.17C218.227 22.07 217.857 21.97 217.387 21.87C216.787 21.73 216.297 21.59 215.917 21.45C215.547 21.31 215.227 21.085 214.957 20.775C214.697 20.455 214.567 20.025 214.567 19.485C214.567 18.785 214.827 18.22 215.347 17.79C215.877 17.35 216.607 17.13 217.537 17.13ZM225.462 17.13C226.432 17.13 227.207 17.38 227.787 17.88C228.377 18.37 228.737 19.03 228.867 19.86H227.247C227.177 19.41 226.982 19.05 226.662 18.78C226.352 18.5 225.937 18.36 225.417 18.36C224.987 18.36 224.652 18.465 224.412 18.675C224.182 18.875 224.067 19.15 224.067 19.5C224.067 19.76 224.152 19.97 224.322 20.13C224.492 20.29 224.702 20.415 224.952 20.505C225.212 20.595 225.577 20.695 226.047 20.805C226.667 20.945 227.167 21.09 227.547 21.24C227.937 21.39 228.267 21.63 228.537 21.96C228.817 22.28 228.957 22.72 228.957 23.28C228.957 23.97 228.692 24.53 228.162 24.96C227.642 25.39 226.937 25.605 226.047 25.605C225.017 25.605 224.182 25.365 223.542 24.885C222.912 24.405 222.532 23.735 222.402 22.875H224.067C224.117 23.325 224.317 23.69 224.667 23.97C225.017 24.25 225.477 24.39 226.047 24.39C226.457 24.39 226.777 24.285 227.007 24.075C227.247 23.855 227.367 23.58 227.367 23.25C227.367 22.96 227.277 22.73 227.097 22.56C226.917 22.39 226.692 22.26 226.422 22.17C226.152 22.07 225.782 21.97 225.312 21.87C224.712 21.73 224.222 21.59 223.842 21.45C223.472 21.31 223.152 21.085 222.882 20.775C222.622 20.455 222.492 20.025 222.492 19.485C222.492 18.785 222.752 18.22 223.272 17.79C223.802 17.35 224.532 17.13 225.462 17.13Z" fill="white"/>
<rect x="244.5" y="0.5" width="1" height="40" fill="#81818C"/>
</g>
<defs>
<clipPath id="clip0_48_2914">
<rect width="245" height="41" fill="white" transform="translate(0.5)"/>
</clipPath>
</defs>
</svg>
